<svg version="1.2" xmlns="http://www.w3.org/2000/svg" viewBox="0 0 500 500" width="500" height="500">
	<style>
		.s0 { fill: #000000 } 
	</style>
	<path id="모양 1" fill-rule="evenodd" class="s0" d="m250 0c17.29 0 31.25 13.96 31.25 31.25v10.16c91.5 13.57 163.77 85.93 177.34 177.34h10.16c17.29 0 31.25 13.96 31.25 31.25 0 17.29-13.96 31.25-31.25 31.25h-10.16c-13.57 91.5-85.93 163.77-177.34 177.34v10.16c0 17.29-13.96 31.25-31.25 31.25-17.29 0-31.25-13.96-31.25-31.25v-10.16c-91.5-13.57-163.77-85.84-177.34-177.34h-10.16c-17.29 0-31.25-13.96-31.25-31.25 0-17.29 13.96-31.25 31.25-31.25h10.16c13.57-91.5 85.84-163.77 177.34-177.34v-10.16c0-17.29 13.96-31.25 31.25-31.25zm-145.12 281.25c12.21 56.93 57.03 101.66 113.87 113.87v-20.12c0-17.29 13.96-31.25 31.25-31.25 17.29 0 31.25 13.96 31.25 31.25v20.12c56.93-12.21 101.66-57.03 113.87-113.87h-20.12c-17.29 0-31.25-13.96-31.25-31.25 0-17.29 13.96-31.25 31.25-31.25h20.12c-12.21-56.93-56.94-101.66-113.87-113.87v20.12c0 17.29-13.96 31.25-31.25 31.25-17.29 0-31.25-13.96-31.25-31.25v-20.12c-56.93 12.21-101.66 56.94-113.87 113.87h20.12c17.29 0 31.25 13.96 31.25 31.25 0 17.29-13.96 31.25-31.25 31.25zm145.12-62.5c8.29 0 16.23 3.29 22.09 9.15 5.86 5.86 9.16 13.81 9.16 22.1 0 8.29-3.3 16.24-9.16 22.1-5.86 5.86-13.8 9.15-22.09 9.15-8.29 0-16.24-3.29-22.1-9.15-5.86-5.86-9.15-13.81-9.15-22.1 0-8.29 3.29-16.24 9.15-22.1 5.86-5.86 13.81-9.15 22.1-9.15z"/>
</svg>